<?xml version="1.0" encoding="UTF-8"?>
<svg version="1.1" xmlns="http://www.w3.org/2000/svg" width="96" height="96">
<path d="M0 0 C10.23906578 7.73254248 18.72711365 17.59665562 20.6875 30.6875 C22.11678455 48.13329299 19.50517553 61.04058775 8.03125 74.65234375 C0.02533375 83.28136197 -10.26078398 88.35475631 -21.96875 89.00390625 C-38.65548452 89.56319388 -50.64291019 85.89777041 -63.0625 74.375 C-73.05541038 63.81645319 -75.82689781 52.26922077 -75.73217773 38.15722656 C-75.32139743 24.03483761 -69.475381 12.95884274 -59.25 3.28125 C-42.59283172 -10.42061423 -18.05009418 -11.9794347 0 0 Z " fill="#F1F1F1" transform="translate(75.3125,7.3125)"/>
<path d="M0 0 C1.87945312 0.00483398 1.87945312 0.00483398 3.796875 0.00976562 C5.04210937 -0.00634766 6.28734375 -0.02246094 7.5703125 -0.0390625 C8.7665625 -0.03970703 9.9628125 -0.04035156 11.1953125 -0.04101562 C12.29278809 -0.04399658 13.39026367 -0.04697754 14.52099609 -0.05004883 C17.75189257 0.36462186 19.10183609 1.07933489 21.421875 3.32226562 C22.3701101 5.5784112 22.91536831 7.79658132 23.515625 10.16601562 C24.2592566 12.48497528 24.2592566 12.48497528 26.4765625 13.71289062 C28.421875 15.32226562 28.421875 15.32226562 29.0234375 18.21289062 C29.0945576 28.40677181 29.0945576 28.40677181 25.796875 32.57226562 C22.89984043 35.33232456 20.50992891 36.41311127 16.421875 36.32226562 C15.431875 35.66226563 14.441875 35.00226563 13.421875 34.32226562 C13.421875 33.66226563 13.421875 33.00226563 13.421875 32.32226562 C7.481875 32.32226562 1.541875 32.32226562 -4.578125 32.32226562 C-4.908125 33.31226563 -5.238125 34.30226562 -5.578125 35.32226562 C-8.765625 36.13476562 -8.765625 36.13476562 -12.578125 36.32226562 C-15.60591677 33.90003221 -17.43276509 31.54030549 -19.578125 28.32226562 C-19.9140625 25.29101562 -19.9140625 25.29101562 -19.953125 21.82226562 C-19.98148438 20.67757812 -20.00984375 19.53289063 -20.0390625 18.35351562 C-19.578125 15.32226562 -19.578125 15.32226562 -17.6875 13.73242188 C-16.99140625 13.26707031 -16.2953125 12.80171875 -15.578125 12.32226562 C-14.32300415 9.91559762 -14.32300415 9.91559762 -13.453125 7.25976562 C-10.70779728 -0.46572271 -7.75153974 0.04604046 0 0 Z " fill="#465056" transform="translate(43.578125,39.677734375)"/>
<path d="M0 0 C10.23906578 7.73254248 18.72711365 17.59665562 20.6875 30.6875 C22.11678455 48.13329299 19.50517553 61.04058775 8.03125 74.65234375 C0.02533375 83.28136197 -10.26078398 88.35475631 -21.96875 89.00390625 C-38.65548452 89.56319388 -50.64291019 85.89777041 -63.0625 74.375 C-73.05541038 63.81645319 -75.82689781 52.26922077 -75.73217773 38.15722656 C-75.32139743 24.03483761 -69.475381 12.95884274 -59.25 3.28125 C-42.59283172 -10.42061423 -18.05009418 -11.9794347 0 0 Z M-59.46484375 9.64453125 C-68.72480778 19.88334983 -72.04711646 30.26494042 -71.59765625 43.8125 C-70.72140829 55.71986953 -65.08687806 66.59728397 -56.3125 74.6875 C-45.29292336 82.8438704 -33.97171557 86.08364743 -20.3125 84.6875 C-8.3940565 82.25780525 1.70609915 76.14169417 8.96484375 66.37890625 C16.15505193 55.14522499 18.85039888 42.82445982 16.0390625 29.6484375 C11.81388944 17.11736868 4.47804021 7.41905252 -7.22265625 1.12109375 C-25.21075743 -7.37664988 -44.9074464 -3.89653856 -59.46484375 9.64453125 Z " fill="#465157" transform="translate(75.3125,7.3125)"/>
<path d="M0 0 C6.23685015 6.83083587 6.4922962 15.54038347 6.28125 24.3515625 C5.41324913 35.61146263 -0.02944913 46.02944913 -8 54 C-19.60339699 62.82867162 -31.41928391 66.54643959 -46 65 C-56.88876265 62.51512852 -66.26403011 56.86311828 -73 48 C-69.0167039 48 -68.09013581 49.52789135 -65 52 C-54.51378639 58.13719449 -42.67099219 59.95626043 -30.796875 57.27734375 C-25.05148466 55.29534457 -19.95314283 52.49900915 -15 49 C-14.13375 48.4225 -13.2675 47.845 -12.375 47.25 C-5.20347421 40.45592294 0.70947196 29.86158875 1.1328125 19.86328125 C1.11805597 13.15643659 0.91668985 6.64600139 0 0 Z " fill="#D7D7D7" transform="translate(86,27)"/>
<path d="M0 0 C0.82290527 0.00202423 1.64581055 0.00404846 2.49365234 0.00613403 C3.33331543 0.00517731 4.17297852 0.00422058 5.03808594 0.00323486 C6.81689529 0.00255306 8.59570712 0.00440737 10.37451172 0.00857544 C13.10699011 0.01392371 15.83930411 0.00863048 18.57177734 0.00222778 C20.29573604 0.00288856 22.01969464 0.00416973 23.74365234 0.00613403 C24.56655762 0.0041098 25.38946289 0.00208557 26.23730469 0 C32.0037018 0.02399599 32.0037018 0.02399599 33.11865234 1.13894653 C33.21689171 2.80323705 33.24838865 4.47176584 33.24365234 6.13894653 C33.24751953 7.50019653 33.24751953 7.50019653 33.25146484 8.88894653 C33.11865234 11.13894653 33.11865234 11.13894653 32.11865234 12.13894653 C29.31871637 12.23997908 26.54396591 12.27864741 23.74365234 12.27175903 C22.90398926 12.27271576 22.06432617 12.27367249 21.19921875 12.2746582 C19.4204094 12.27534001 17.64159757 12.2734857 15.86279297 12.26931763 C13.13031458 12.26396936 10.39800058 12.26926259 7.66552734 12.27566528 C5.94156865 12.2750045 4.21761005 12.27372334 2.49365234 12.27175903 C1.67074707 12.27378326 0.8478418 12.2758075 0 12.27789307 C-5.76639711 12.25389708 -5.76639711 12.25389708 -6.88134766 11.13894653 C-6.97958703 9.47465602 -7.01108397 7.80612722 -7.00634766 6.13894653 C-7.00892578 5.23144653 -7.01150391 4.32394653 -7.01416016 3.38894653 C-6.74675262 -1.14125164 -3.87082911 0.01610787 0 0 Z " fill="#8398A3" transform="translate(34.88134765625,55.861053466796875)"/>
<path d="M0 0 C4.10379698 -0.14489234 8.20693967 -0.23393542 12.3125 -0.3125 C13.47974609 -0.35439453 14.64699219 -0.39628906 15.84960938 -0.43945312 C16.96787109 -0.45556641 18.08613281 -0.47167969 19.23828125 -0.48828125 C20.7857605 -0.52755737 20.7857605 -0.52755737 22.36450195 -0.56762695 C25 0 25 0 26.86010742 2.34301758 C28 5 28 5 28 8 C18.1 8 8.2 8 -2 8 C-1 2 -1 2 0 0 Z " fill="#CDECFA" transform="translate(35,44)"/>
<path d="M0 0 C2.66404576 1.01050012 3.97707828 1.97233585 5.8125 4.1875 C7.37728147 7.89356138 7.01717414 10.14926935 6 14 C2.77856724 16.14762184 1.7404533 16.561068 -2 16 C-3.875 14.4375 -3.875 14.4375 -5 12 C-4.90335936 6.68476467 -3.61703688 3.85039409 0 0 Z " fill="#49616E" transform="translate(53,20)"/>
<path d="M0 0 C2.66404576 1.01050012 3.97707828 1.97233585 5.8125 4.1875 C7.37728147 7.89356138 7.01717414 10.14926935 6 14 C2.77856724 16.14762184 1.7404533 16.561068 -2 16 C-3.875 14.4375 -3.875 14.4375 -5 12 C-4.90335936 6.68476467 -3.61703688 3.85039409 0 0 Z " fill="#4F6673" transform="translate(39,16)"/>
<path d="M0 0 C2.625 0.375 2.625 0.375 5 1 C5.625 3.375 5.625 3.375 6 6 C5.34 6.66 4.68 7.32 4 8 C1.375 7.625 1.375 7.625 -1 7 C-1.625 4.625 -1.625 4.625 -2 2 C-1.34 1.34 -0.68 0.68 0 0 Z " fill="#4B565C" transform="translate(34,58)"/>
<path d="M0 0 C2.625 0.375 2.625 0.375 5 1 C5.625 3.375 5.625 3.375 6 6 C5.34 6.66 4.68 7.32 4 8 C1.375 7.625 1.375 7.625 -1 7 C-1.625 4.625 -1.625 4.625 -2 2 C-1.34 1.34 -0.68 0.68 0 0 Z " fill="#414D53" transform="translate(58,58)"/>
<path d="M0 0 C3.3 0 6.6 0 10 0 C10 1.32 10 2.64 10 4 C6.7 4 3.4 4 0 4 C0 2.68 0 1.36 0 0 Z " fill="#434E54" transform="translate(43,60)"/>
</svg>
